<svg id="Layer_1" data-name="Layer 1" xmlns="http://www.w3.org/2000/svg" viewBox="0 0 1365 300.39"><defs><style>.cls-1{fill:#fff;}.cls-2{fill:#ff7a59;}</style></defs><title>AgencyHUB darktheme</title><g id="_Group_" data-name="&lt;Group&gt;"><g id="_Group_2" data-name="&lt;Group&gt;"><path id="_Compound_Path_" data-name="&lt;Compound Path&gt;" class="cls-1" d="M553.88,261.24l-8.1-21.79H490.62l-8.1,21.79h-31L501,132.61h34.32l49.57,128.63ZM518.2,160l-20.06,55.35h40.12Z" transform="translate(-117.5 -54.8)"/><path id="_Compound_Path_2" data-name="&lt;Compound Path&gt;" class="cls-1" d="M594.38,285.16l11-17.55c7.53,8.1,17.55,11.38,29.13,11.38,11.76,0,25.84-5,25.84-23.92V246c-7.33,9.26-17.36,14.46-28.93,14.46-23.14,0-41.08-16.2-41.08-47.25,0-30.47,17.55-47.44,41.08-47.44a35.69,35.69,0,0,1,28.93,14.27v-12h24.49v87c0,35.3-27.39,44-50.33,44C618.68,299,606.15,295.38,594.38,285.16Zm66-56.89V198c-4.25-6-13.12-10.42-21-10.42-14.08,0-23.72,9.65-23.72,25.65s9.64,25.65,23.72,25.65C647.22,238.87,656.09,234.24,660.34,228.27Z" transform="translate(-117.5 -54.8)"/><path id="_Compound_Path_3" data-name="&lt;Compound Path&gt;" class="cls-1" d="M703.15,214.57c0-27,20.06-48.79,48.22-48.79,28,0,46.67,20.83,46.67,51.11v5.78H728.8c1.74,11.38,11,20.83,26.81,20.83,7.91,0,18.71-3.28,24.69-9.06l11,16.2c-9.26,8.48-23.91,12.92-38.38,12.92C724.56,263.56,703.15,244.47,703.15,214.57Zm48.22-28.73c-15.24,0-21.79,10.6-22.76,19.86h45.9C773.74,196.83,767.57,185.84,751.37,185.84Z" transform="translate(-117.5 -54.8)"/><path id="_Compound_Path_4" data-name="&lt;Compound Path&gt;" class="cls-1" d="M878.66,261.24V204.93c0-12.92-6.75-17.36-17.17-17.36-9.64,0-17,5.4-21.21,10.8v62.87h-24.5V168.09h24.5v12c6-6.94,17.55-14.27,32.59-14.27,20.64,0,30.47,11.57,30.47,29.7v65.76Z" transform="translate(-117.5 -54.8)"/><path id="_Compound_Path_5" data-name="&lt;Compound Path&gt;" class="cls-1" d="M921.47,214.57c0-28.54,20.83-48.79,49.37-48.79,19.1,0,30.67,8.29,36.84,16.78l-16,15c-4.43-6.56-11.18-10-19.67-10-14.85,0-25.26,10.8-25.26,27s10.41,27.2,25.26,27.2a23.18,23.18,0,0,0,19.67-10.23l16,15.05c-6.17,8.48-17.74,17-36.84,17C942.3,263.56,921.47,243.31,921.47,214.57Z" transform="translate(-117.5 -54.8)"/><path id="_Compound_Path_6" data-name="&lt;Compound Path&gt;" class="cls-1" d="M1022.53,285.16l11-17.55c6.75,8.1,18.13,11.38,28,11.38,15.81,0,25.07-10.8,25.07-23.92v-9.64a44.3,44.3,0,0,1-32.79,14.08c-20.44,0-30.08-11.19-30.08-29.32v-62.1h24.49v52.46c0,12.92,6.75,17.17,17.17,17.17a27.41,27.41,0,0,0,21.21-10.61v-59h24.49v87c0,28-19.86,44-49.56,44C1045.87,299,1033.33,294.61,1022.53,285.16Z" transform="translate(-117.5 -54.8)"/><path id="_Compound_Path_7" data-name="&lt;Compound Path&gt;" class="cls-2" d="M1224.07,261.24V207.05h-60.75v54.19h-27.39V132.61h27.39v50.53h60.75V132.61h27.58V261.24Z" transform="translate(-117.5 -54.8)"/><path id="_Compound_Path_8" data-name="&lt;Compound Path&gt;" class="cls-2" d="M1339.21,261.24V249.48a44.32,44.32,0,0,1-32.79,14.08c-20.44,0-30.08-11.19-30.08-29.32V168.09h24.49V224.6c0,12.92,6.75,17.17,17.16,17.17a27.44,27.44,0,0,0,21.22-10.61V168.09h24.49v93.15Z" transform="translate(-117.5 -54.8)"/><path id="_Compound_Path_9" data-name="&lt;Compound Path&gt;" class="cls-2" d="M1388,261.24V132.61h24.5v47.44a35.32,35.32,0,0,1,28.73-14.27c23.72,0,41.27,18.51,41.27,48.79,0,31.25-17.74,49-41.27,49-11.19,0-21.41-5-28.73-14.27v12Zm45.71-19.47c14.08,0,23.53-11,23.53-27.2,0-16-9.45-27-23.53-27-8.1,0-17,4.63-21.21,10.8v33C1416.74,237.33,1425.61,241.77,1433.71,241.77Z" transform="translate(-117.5 -54.8)"/></g><g id="_Group_3" data-name="&lt;Group&gt;"><path id="_Path_" data-name="&lt;Path&gt;" class="cls-2" d="M140.57,205A127,127,0,0,1,316.32,87.61v88.55H271v39.55h45.33v60.37h39.56V83.44a150.93,150.93,0,0,0-22.25-13.36v0l-1.21-.55q-2.4-1.14-4.85-2.21c-1.33-.58-2.66-1.12-4-1.66-1.05-.42-2.1-.84-3.17-1.23S318,63.47,316.72,63l-.4-.14h0A150.28,150.28,0,0,0,120.53,235.16l20.16-25.49C140.64,208.12,140.57,206.57,140.57,205Z" transform="translate(-117.5 -54.8)"/><path id="_Path_2" data-name="&lt;Path&gt;" class="cls-1" d="M373.19,98.11v36A127.07,127.07,0,1,1,160.89,273.8l58.18-73.13v75.41h39.56V127.33H226.32l-100.49,127a148.43,148.43,0,0,0,10.94,24.05l-.07.09c.58,1,1.24,2,1.85,3.06.72,1.2,1.43,2.41,2.18,3.59,1.14,1.8,2.33,3.55,3.54,5.29.53.77,1,1.58,1.55,2.34l0-.05A150.15,150.15,0,1,0,373.19,98.11Z" transform="translate(-117.5 -54.8)"/></g></g></svg>